<?xml version="1.0" standalone="no"?>
<!DOCTYPE svg PUBLIC "-//W3C//DTD SVG 20010904//EN"
 "http://www.w3.org/TR/2001/REC-SVG-20010904/DTD/svg10.dtd">
<svg version="1.0" xmlns="http://www.w3.org/2000/svg"
 width="512.000000pt" height="512.000000pt" viewBox="0 0 512.000000 512.000000"
 preserveAspectRatio="xMidYMid meet">
<metadata>
Created by potrace 1.14, written by Peter Selinger 2001-2017
</metadata>
<g transform="translate(0.000000,512.000000) scale(0.100000,-0.100000)"
fill="#000000" stroke="none">
<path d="M345 5005 c-16 -9 -38 -23 -47 -32 -19 -17 -58 -96 -64 -129 -40
-223 -21 -358 96 -654 49 -125 51 -166 17 -276 -30 -98 -39 -157 -38 -248 2
-83 38 -200 85 -271 49 -75 63 -104 75 -165 22 -110 24 -157 36 -670 2 -118 7
-226 9 -240 3 -14 12 -70 22 -125 77 -467 382 -857 884 -1133 57 -31 78 -49
89 -74 19 -44 89 -135 138 -179 44 -40 138 -104 194 -133 34 -18 37 -22 36
-65 -3 -236 141 -411 391 -475 98 -25 113 -27 257 -31 257 -8 422 39 542 153
79 76 123 181 127 302 l2 75 40 18 c35 17 145 80 169 99 58 44 142 132 175
184 22 35 40 67 40 72 0 5 19 19 43 32 204 113 367 230 495 357 139 138 220
246 296 401 76 151 112 277 151 522 3 19 8 136 10 260 6 288 14 528 19 560 3
14 7 41 10 60 10 65 25 102 74 184 67 111 83 163 89 281 4 86 1 115 -21 203
-14 57 -30 111 -35 120 -16 32 -1 100 49 228 45 114 66 177 71 209 1 6 5 20
10 32 30 80 27 315 -6 423 -52 169 -238 186 -355 31 -165 -217 -417 -379 -717
-461 l-81 -22 -118 50 c-223 95 -426 154 -679 197 -282 48 -676 36 -952 -30
-13 -3 -31 -7 -41 -9 -146 -33 -373 -112 -512 -179 -51 -24 -56 -24 -164 10
-262 82 -483 227 -629 413 -81 101 -121 129 -202 136 -35 4 -59 0 -80 -11z"/>
</g>
</svg>
